<svg width="14" height="18" viewBox="0 0 14 18" fill="none" xmlns="http://www.w3.org/2000/svg">
<path d="M0.500002 1.28801L0.500002 16.5884C0.500498 16.7434 0.544137 16.8952 0.626221 17.0276C0.708305 17.1601 0.825726 17.2681 0.965844 17.34C1.10596 17.412 1.26348 17.4452 1.42142 17.436C1.57937 17.4268 1.73178 17.3757 1.86223 17.288L13.149 9.6378C13.617 9.32074 13.617 8.55742 13.149 8.23951L1.86223 0.589292C1.73205 0.500741 1.57957 0.448812 1.42136 0.439148C1.26314 0.429484 1.10525 0.462455 0.964838 0.534477C0.824422 0.6065 0.706851 0.71482 0.6249 0.847669C0.542949 0.980518 0.499752 1.13281 0.500002 1.28801Z" fill="black"/>
</svg>
