<svg xmlns="http://www.w3.org/2000/svg" width="45" height="52" viewBox="0 0 45 52" fill="none">
  <path d="M0.687418 44.9863C-0.268852 46.0621 -0.0596677 47.7356 1.13567 48.5425L7.98894 51.3216C8.97509 51.989 10.3099 51.8197 11.1068 50.9431L20.2511 40.7927L12.3619 32.0368L0.687418 44.9863ZM44.0981 44.9863C44.0981 44.9863 15.0115 12.6525 14.6729 12.1046C16.2069 11.2679 18.6772 10.3215 22.3928 10.3215C26.1083 10.3215 28.5786 11.2679 30.1126 12.1046C29.7839 12.6624 24.5344 18.5395 24.5344 18.5395L32.4137 27.2754L35.8204 23.4902C38.6792 20.3126 39.1374 15.6607 36.956 11.9851L32.6029 4.66362C32.1746 3.94642 31.6168 3.33879 30.9295 2.87061C26.8753 0.121335 18.239 -0.0878489 13.8561 2.87061C13.1687 3.33879 12.6109 3.94642 12.1826 4.66362L7.83952 11.9552C7.6901 12.2042 4.14394 18.151 8.98505 23.5101L33.6987 50.9331C34.4955 51.8197 35.8303 51.9791 36.8165 51.3117L43.6698 48.5325C44.8551 47.7356 45.0643 46.0621 44.0981 44.9863Z" fill="black"/>
</svg>