<svg width="17" height="16" viewBox="0 0 17 16" fill="none" xmlns="http://www.w3.org/2000/svg">
<path d="M8.35877 6.71013C8.16446 6.71128 7.97484 6.77036 7.81383 6.87994C7.65282 6.98951 7.52763 7.14465 7.45406 7.3258C7.38049 7.50695 7.36183 7.70599 7.40044 7.89781C7.43904 8.08963 7.53318 8.26564 7.67098 8.40363C7.80879 8.54162 7.98408 8.63542 8.17474 8.67318C8.3654 8.71094 8.5629 8.69098 8.74231 8.61582C8.92172 8.54066 9.07502 8.41366 9.18286 8.25085C9.2907 8.08803 9.34825 7.89669 9.34825 7.70097C9.34787 7.57047 9.32198 7.44132 9.27205 7.3209C9.22212 7.20048 9.14913 7.09115 9.05725 6.99914C8.96536 6.90713 8.85639 6.83425 8.73654 6.78466C8.6167 6.73507 8.48833 6.70975 8.35877 6.71013ZM5.17108 6.71013C4.97676 6.71128 4.78714 6.77036 4.62613 6.87994C4.46512 6.98951 4.33994 7.14465 4.26637 7.3258C4.1928 7.50695 4.17414 7.70599 4.21274 7.89781C4.25135 8.08963 4.34549 8.26564 4.48329 8.40363C4.62109 8.54162 4.79638 8.63542 4.98704 8.67318C5.17771 8.71094 5.3752 8.69098 5.55462 8.61582C5.73403 8.54066 5.88733 8.41366 5.99516 8.25085C6.103 8.08803 6.16055 7.89669 6.16056 7.70097C6.15979 7.43792 6.05551 7.1859 5.87057 7.00016C5.68563 6.81443 5.43512 6.71013 5.17396 6.71013H5.17108ZM11.5436 6.71013C11.3493 6.71128 11.1596 6.77036 10.9986 6.87994C10.8376 6.98951 10.7124 7.14465 10.6389 7.3258C10.5653 7.50695 10.5466 7.70599 10.5852 7.89781C10.6238 8.08963 10.718 8.26564 10.8558 8.40363C10.9936 8.54162 11.1689 8.63542 11.3595 8.67318C11.5502 8.71094 11.7477 8.69098 11.9271 8.61582C12.1065 8.54066 12.2598 8.41366 12.3677 8.25085C12.4755 8.08803 12.5331 7.89669 12.5331 7.70097C12.5323 7.43792 12.428 7.1859 12.2431 7.00016C12.0581 6.81443 11.8076 6.71013 11.5465 6.71013H11.5436ZM15.9804 5.10328C15.5332 4.4001 14.9044 3.77829 14.1139 3.25526C12.5879 2.24408 10.5829 1.68619 8.46839 1.68619C7.77193 1.68585 7.07683 1.74808 6.39134 1.87215C5.96296 1.45701 5.48297 1.09954 4.96337 0.808665C3.0421 -0.161837 1.34584 0.198469 0.486176 0.509379C0.42118 0.532668 0.36302 0.572004 0.317018 0.623786C0.271017 0.675568 0.238642 0.738144 0.222858 0.805787C0.207073 0.87343 0.208382 0.94398 0.226665 1.01098C0.244949 1.07798 0.279622 1.1393 0.327512 1.18931C0.930434 1.81985 1.93146 3.06348 1.68625 4.19671C0.731383 5.18174 0.212121 6.37016 0.212121 7.60508C0.212121 8.86616 0.731383 10.0517 1.68625 11.0367C1.93146 12.1699 0.930434 13.4136 0.327512 14.0441C0.280339 14.0943 0.24636 14.1556 0.228655 14.2225C0.210951 14.2893 0.210081 14.3595 0.226124 14.4267C0.242168 14.494 0.274617 14.5561 0.320532 14.6075C0.366446 14.6589 0.424372 14.698 0.489061 14.7211C1.34584 15.032 3.0421 15.3923 4.96914 14.4247C5.48871 14.1338 5.96869 13.7764 6.39711 13.3613C7.08259 13.4853 7.7777 13.5476 8.47416 13.5472C10.5887 13.5472 12.5936 12.9893 14.1197 11.9782C14.9101 11.4551 15.5361 10.8333 15.9862 10.1301C16.4852 9.3485 16.7391 8.50585 16.7391 7.62833C16.7362 6.72756 16.4823 5.88491 15.9833 5.10328H15.9804ZM8.38762 12.0886C7.51715 12.091 6.65012 11.9787 5.80861 11.7544L5.22877 12.3181C4.90684 12.6296 4.54726 12.8991 4.15851 13.1201C3.68523 13.3591 3.17139 13.506 2.644 13.553C2.67285 13.5007 2.69881 13.4484 2.72477 13.3961C3.3075 12.3172 3.46424 11.3476 3.19499 10.4875C2.24301 9.73205 1.67182 8.76736 1.67182 7.7155C1.67182 5.30087 4.68066 3.34243 8.38762 3.34243C12.0946 3.34243 15.1063 5.30087 15.1063 7.7155C15.1063 10.1301 12.0975 12.0886 8.38762 12.0886Z" fill="black"/>
</svg>
