<svg width="15" height="15" viewBox="0 0 15 15" fill="none" xmlns="http://www.w3.org/2000/svg">
<path d="M8.40594 1.04C8.40594 0.52579 7.9905 0.110352 7.47629 0.110352C6.96207 0.110352 6.54664 0.52579 6.54664 1.04V8.09084L4.41424 5.95845C4.0511 5.59531 3.46135 5.59531 3.0982 5.95845C2.73506 6.3216 2.73506 6.91135 3.0982 7.27449L6.81682 10.9931C7.17996 11.3563 7.76971 11.3563 8.13286 10.9931L11.8515 7.27449C12.2146 6.91135 12.2146 6.3216 11.8515 5.95845C11.4883 5.59531 10.8986 5.59531 10.5354 5.95845L8.40594 8.09084V1.04ZM1.89837 10.3365C0.872845 10.3365 0.0390625 11.1703 0.0390625 12.1958V13.1255C0.0390625 14.151 0.872845 14.9848 1.89837 14.9848H13.0542C14.0797 14.9848 14.9135 14.151 14.9135 13.1255V12.1958C14.9135 11.1703 14.0797 10.3365 13.0542 10.3365H10.1055L8.78942 11.6526C8.06313 12.3789 6.88654 12.3789 6.16025 11.6526L4.84711 10.3365H1.89837ZM12.5894 11.9634C12.7743 11.9634 12.9516 12.0369 13.0824 12.1676C13.2132 12.2984 13.2866 12.4758 13.2866 12.6607C13.2866 12.8456 13.2132 13.0229 13.0824 13.1537C12.9516 13.2845 12.7743 13.3579 12.5894 13.3579C12.4045 13.3579 12.2271 13.2845 12.0964 13.1537C11.9656 13.0229 11.8921 12.8456 11.8921 12.6607C11.8921 12.4758 11.9656 12.2984 12.0964 12.1676C12.2271 12.0369 12.4045 11.9634 12.5894 11.9634Z" fill="black"/>
</svg>
