<svg width="285" height="51" viewBox="0 0 285 51" fill="none" xmlns="http://www.w3.org/2000/svg">
<g clip-path="url(#clip0_57_517)">
<path d="M53.1133 44.2005C56.0474 44.2005 58.7953 44.3219 61.5324 44.2005C64.4885 44.0349 64.7185 43.6704 64.8168 40.7002C64.8168 39.9273 64.8168 39.1655 64.8168 38.0171C63.9052 39.0026 62.7853 39.7685 61.5402 40.2579C60.2948 40.7472 58.9564 40.9475 57.624 40.8438C56.2289 40.8313 54.8724 40.3798 53.7438 39.5525C52.6154 38.725 51.771 37.5629 51.3288 36.2283C49.7385 31.597 50.0179 26.5206 52.1061 22.095C52.4411 21.3334 52.9561 20.6662 53.606 20.1517C54.2479 19.6506 54.9983 19.31 55.7957 19.1579C61.5762 17.844 67.2694 18.639 72.7324 19.6658V41.7492C72.699 42.4088 72.5698 43.0598 72.3492 43.6816C71.0245 47.6895 68.8019 50.7592 64.1708 50.6931C60.8098 50.6931 57.5036 50.2513 54.1754 49.9533C52.8179 49.8206 52.2594 49.0367 52.5551 47.6344C52.8616 46.3426 52.9711 45.1058 53.1133 44.2005ZM64.784 24.0273C63.5626 23.95 62.3377 23.95 61.1163 24.0273C60.5581 24.1046 59.6493 24.5904 59.6167 24.9438C59.3256 27.7273 59.2635 30.5306 59.4305 33.3244C59.5838 34.9364 61.39 34.9033 62.7149 34.6273C63.4593 34.4617 64.6856 33.8324 64.7185 33.3576C64.8826 30.3543 64.784 27.3178 64.784 24.0273Z" fill="#D9F6FE"/>
<path d="M53.1133 44.2005C56.0474 44.2005 58.7953 44.3219 61.5324 44.2005C64.4885 44.0349 64.7185 43.6704 64.8168 40.7002C64.8168 39.9273 64.8168 39.1655 64.8168 38.0171C63.9052 39.0026 62.7853 39.7685 61.5402 40.2579C60.2948 40.7472 58.9564 40.9475 57.624 40.8438C56.2289 40.8313 54.8724 40.3798 53.7438 39.5525C52.6154 38.725 51.771 37.5629 51.3288 36.2283C49.7385 31.597 50.0179 26.5206 52.1061 22.095C52.4411 21.3334 52.9561 20.6662 53.606 20.1517C54.2479 19.6506 54.9983 19.31 55.7957 19.1579C61.5762 17.844 67.2694 18.639 72.7324 19.6658V41.7492C72.699 42.4088 72.5698 43.0598 72.3492 43.6816C71.0245 47.6895 68.8019 50.7592 64.1708 50.6931C60.8098 50.6931 57.5036 50.2513 54.1754 49.9533C52.8179 49.8206 52.2594 49.0367 52.5551 47.6344C52.8616 46.3426 52.9711 45.1058 53.1133 44.2005ZM64.784 24.0273C63.5626 23.95 62.3377 23.95 61.1163 24.0273C60.5581 24.1046 59.6493 24.5904 59.6167 24.9438C59.3256 27.7273 59.2635 30.5306 59.4305 33.3244C59.5838 34.9364 61.39 34.9033 62.7149 34.6273C63.4593 34.4617 64.6856 33.8324 64.7185 33.3576C64.8826 30.3543 64.784 27.3178 64.784 24.0273Z" fill="white"/>
<path d="M90.3477 18.804C92.2857 18.804 94.0593 18.7046 95.8218 18.8592C96.3803 18.8592 96.9823 19.5769 97.3437 20.1069C97.6578 20.7606 97.8789 21.4557 98.0006 22.1717L99.5661 20.8688C100.879 19.6979 102.477 18.9013 104.197 18.5611C105.917 18.2099 107.698 18.3164 109.365 18.8703C110.908 19.334 112.189 20.2615 112.211 22.0282C112.277 28.333 112.211 34.6266 112.211 41.0529H104.328C104.328 36.7358 104.328 32.4957 104.328 28.2666C104.328 27.295 103.945 25.5725 103.518 25.5063C102.051 25.3605 100.569 25.4726 99.1391 25.8375C98.8763 25.8375 98.6793 26.9416 98.6684 27.571C98.6684 31.9878 98.6684 36.4707 98.6684 41.0529H90.3477V18.804Z" fill="#D9F6FE"/>
<path d="M90.3477 18.804C92.2857 18.804 94.0593 18.7046 95.8218 18.8592C96.3803 18.8592 96.9823 19.5769 97.3437 20.1069C97.6578 20.7606 97.8789 21.4557 98.0006 22.1717L99.5661 20.8688C100.879 19.6979 102.477 18.9013 104.197 18.5611C105.917 18.2099 107.698 18.3164 109.365 18.8703C110.908 19.334 112.189 20.2615 112.211 22.0282C112.277 28.333 112.211 34.6266 112.211 41.0529H104.328C104.328 36.7358 104.328 32.4957 104.328 28.2666C104.328 27.295 103.945 25.5725 103.518 25.5063C102.051 25.3605 100.569 25.4726 99.1391 25.8375C98.8763 25.8375 98.6793 26.9416 98.6684 27.571C98.6684 31.9878 98.6684 36.4707 98.6684 41.0529H90.3477V18.804Z" fill="white"/>
<path d="M33.5277 41.0543H25.3604V18.9046H31.9291L32.9584 22.2945C35.2685 19.8763 37.8411 18.3415 41.1584 18.3857C45.5376 18.4519 47.1579 19.6776 47.3112 23.9949C47.5411 29.6372 47.3661 35.2796 47.3661 41.0433H39.0894V34.1311C39.0894 32.0553 39.0894 29.8469 39.0894 27.7602C39.1549 26.137 38.947 25.077 36.8997 25.1542C33.9876 25.2757 33.484 25.5517 33.484 27.8594C33.5277 32.2209 33.5277 36.5824 33.5277 41.0543Z" fill="#D9F6FE"/>
<path d="M33.5277 41.0543H25.3604V18.9046H31.9291L32.9584 22.2945C35.2685 19.8763 37.8411 18.3415 41.1584 18.3857C45.5376 18.4519 47.1579 19.6776 47.3112 23.9949C47.5411 29.6372 47.3661 35.2796 47.3661 41.0433H39.0894V34.1311C39.0894 32.0553 39.0894 29.8469 39.0894 27.7602C39.1549 26.137 38.947 25.077 36.8997 25.1542C33.9876 25.2757 33.484 25.5517 33.484 27.8594C33.5277 32.2209 33.5277 36.5824 33.5277 41.0543Z" fill="white"/>
<path d="M160.832 31.7407H147.815C147.574 33.9488 148.319 34.9759 150.563 35.0532C152.993 35.1636 155.435 35.0532 157.876 34.9537C158.27 34.9537 158.654 34.8876 159.234 34.8322C159.497 36.1896 159.684 37.5611 159.792 38.9399C159.781 39.2094 159.702 39.4716 159.562 39.7016C159.429 39.9296 159.241 40.1197 159.015 40.2537C154.012 41.8547 148.943 42.5945 143.994 40.2537C139.681 38.222 138.958 34.1146 138.903 29.8195C138.914 29.2183 138.979 28.6193 139.1 28.0307C139.659 24.9389 139.582 21.4056 143.096 19.915C147.541 18.0821 152.227 17.3202 156.628 19.8377C158.118 20.8964 159.206 22.4343 159.716 24.1991C160.438 26.4516 160.449 28.9029 160.832 31.7407ZM153.3 27.8429C152.578 26.3192 152.315 24.8396 151.45 24.2433C150.954 23.9737 150.399 23.8325 149.835 23.8325C149.271 23.8325 148.716 23.9737 148.22 24.2433C147.432 24.9279 147.388 26.4516 146.961 27.832L153.3 27.8429Z" fill="#D9F6FE"/>
<path d="M160.832 31.7407H147.815C147.574 33.9488 148.319 34.9759 150.563 35.0532C152.993 35.1636 155.435 35.0532 157.876 34.9537C158.27 34.9537 158.654 34.8876 159.234 34.8322C159.497 36.1896 159.684 37.5611 159.792 38.9399C159.781 39.2094 159.702 39.4716 159.562 39.7016C159.429 39.9296 159.241 40.1197 159.015 40.2537C154.012 41.8547 148.943 42.5945 143.994 40.2537C139.681 38.222 138.958 34.1146 138.903 29.8195C138.914 29.2183 138.979 28.6193 139.1 28.0307C139.659 24.9389 139.582 21.4056 143.096 19.915C147.541 18.0821 152.227 17.3202 156.628 19.8377C158.118 20.8964 159.206 22.4343 159.716 24.1991C160.438 26.4516 160.449 28.9029 160.832 31.7407ZM153.3 27.8429C152.578 26.3192 152.315 24.8396 151.45 24.2433C150.954 23.9737 150.399 23.8325 149.835 23.8325C149.271 23.8325 148.716 23.9737 148.22 24.2433C147.432 24.9279 147.388 26.4516 146.961 27.832L153.3 27.8429Z" fill="white"/>
<path d="M21.1551 34.8455C21.2317 35.5634 21.2865 36.0713 21.3631 36.5902C21.8558 40.3333 21.8777 40.4989 18.2539 41.0068C15.4615 41.4703 12.6263 41.6147 9.80195 41.4374C3.88997 40.9848 0.408479 36.3473 0.769764 29.8437C0.914019 28.0563 1.18476 26.2813 1.57992 24.5327C1.75607 23.1574 2.38866 21.8828 3.37469 20.9164C4.36072 19.95 5.6421 19.3488 7.01017 19.2106C9.78884 18.7935 12.6018 18.6567 15.4074 18.802C19.064 19.056 21.2208 21.3968 21.8448 25.0075C22.2061 27.0833 22.3375 29.2032 22.6112 31.5221C20.2464 31.6435 18.1006 31.7759 15.9438 31.8312C13.787 31.8863 11.7397 31.8312 9.67057 31.8312C9.44065 34.0397 10.1961 34.9892 12.4404 35.1437C14.86 35.2542 17.3123 35.0884 19.7428 35.0443C20.2173 35.009 20.6891 34.9424 21.1551 34.8455ZM9.23265 27.7458H14.5206C14.6848 24.9191 13.8856 23.7929 11.8492 23.7156C9.8129 23.6383 9.1122 24.5879 9.23265 27.7458Z" fill="#D9F6FE"/>
<path d="M21.1551 34.8455C21.2317 35.5634 21.2865 36.0713 21.3631 36.5902C21.8558 40.3333 21.8777 40.4989 18.2539 41.0068C15.4615 41.4703 12.6263 41.6147 9.80195 41.4374C3.88997 40.9848 0.408479 36.3473 0.769764 29.8437C0.914019 28.0563 1.18476 26.2813 1.57992 24.5327C1.75607 23.1574 2.38866 21.8828 3.37469 20.9164C4.36072 19.95 5.6421 19.3488 7.01017 19.2106C9.78884 18.7935 12.6018 18.6567 15.4074 18.802C19.064 19.056 21.2208 21.3968 21.8448 25.0075C22.2061 27.0833 22.3375 29.2032 22.6112 31.5221C20.2464 31.6435 18.1006 31.7759 15.9438 31.8312C13.787 31.8863 11.7397 31.8312 9.67057 31.8312C9.44065 34.0397 10.1961 34.9892 12.4404 35.1437C14.86 35.2542 17.3123 35.0884 19.7428 35.0443C20.2173 35.009 20.6891 34.9424 21.1551 34.8455ZM9.23265 27.7458H14.5206C14.6848 24.9191 13.8856 23.7929 11.8492 23.7156C9.8129 23.6383 9.1122 24.5879 9.23265 27.7458Z" fill="white"/>
<path d="M137.117 31.7836H123.979C124.34 34.3122 125.074 35.0298 127.406 35.0961C130.088 35.1954 132.781 35.0961 135.748 35.0961C135.978 36.4653 136.241 38.0663 136.558 39.9324C131.019 41.7872 125.534 42.7589 120.136 40.0316C118.768 39.3315 117.622 38.2572 116.83 36.9314C116.038 35.6056 115.632 34.0819 115.658 32.5344C115.645 29.6316 115.924 26.7348 116.491 23.8888C116.674 22.7955 117.179 21.7832 117.94 20.9836C118.702 20.1841 119.684 19.6343 120.76 19.4058C123.824 18.3779 127.092 18.1276 130.274 18.6771C134.007 19.5163 135.869 21.3492 136.536 25.1475C136.821 27.1902 136.887 29.255 137.117 31.7836ZM129.891 27.8418C129.114 26.3068 128.796 24.8384 127.92 24.2421C127.417 23.9628 126.852 23.8163 126.278 23.8163C125.704 23.8163 125.139 23.9628 124.636 24.2421C123.87 24.9156 123.858 26.4504 123.475 27.8305L129.891 27.8418Z" fill="#D9F6FE"/>
<path d="M137.117 31.7836H123.979C124.34 34.3122 125.074 35.0298 127.406 35.0961C130.088 35.1954 132.781 35.0961 135.748 35.0961C135.978 36.4653 136.241 38.0663 136.558 39.9324C131.019 41.7872 125.534 42.7589 120.136 40.0316C118.768 39.3315 117.622 38.2572 116.83 36.9314C116.038 35.6056 115.632 34.0819 115.658 32.5344C115.645 29.6316 115.924 26.7348 116.491 23.8888C116.674 22.7955 117.179 21.7832 117.94 20.9836C118.702 20.1841 119.684 19.6343 120.76 19.4058C123.824 18.3779 127.092 18.1276 130.274 18.6771C134.007 19.5163 135.869 21.3492 136.536 25.1475C136.821 27.1902 136.887 29.255 137.117 31.7836ZM129.891 27.8418C129.114 26.3068 128.796 24.8384 127.92 24.2421C127.417 23.9628 126.852 23.8163 126.278 23.8163C125.704 23.8163 125.139 23.9628 124.636 24.2421C123.87 24.9156 123.858 26.4504 123.475 27.8305L129.891 27.8418Z" fill="white"/>
<path d="M275.248 5.8667H193.455C192.256 5.88683 191.073 6.14502 189.972 6.6265C188.872 7.10798 187.877 7.80333 187.043 8.67281C186.209 9.54231 185.554 10.5689 185.113 11.694C184.673 12.8191 184.457 14.0207 184.477 15.2301V38.1195C184.453 39.3315 184.666 40.5366 185.104 41.6655C185.542 42.7947 186.197 43.8251 187.031 44.6981C187.865 45.571 188.862 46.2693 189.965 46.7529C191.067 47.2366 192.253 47.4959 193.455 47.516H275.215C277.635 47.4724 279.94 46.4618 281.62 44.7059C283.301 42.9503 284.222 40.593 284.181 38.1524V15.2301C284.222 12.7952 283.306 10.4429 281.631 8.68817C279.958 6.93339 277.661 5.9189 275.248 5.8667Z" fill="url(#paint0_linear_57_517)"/>
<path d="M220.562 12.0063C220.562 12.5142 220.562 12.989 220.628 13.5301C220.223 13.6294 219.895 13.7178 219.533 13.773C217.267 14.1926 216.851 14.6232 216.84 16.964C216.84 23.3829 216.84 29.7981 216.84 36.2097C216.84 38.9258 217.19 39.213 220.541 39.6656L220.617 41.2447H208.903L208.782 39.6437C209.286 39.6437 209.658 39.5 210.041 39.5C210.385 39.5324 210.732 39.4896 211.059 39.3742C211.385 39.2587 211.682 39.0733 211.931 38.8313C212.179 38.5889 212.373 38.2954 212.498 37.9706C212.624 37.6457 212.678 37.2973 212.658 36.9495C212.735 33.7253 212.658 30.501 212.658 27.1666H199.63C199.63 30.5783 199.553 33.9681 199.63 37.3579C199.63 38.8817 200.484 39.2572 203.341 39.6656V41.2556H191.605V39.6105L192.886 39.4891C193.229 39.5042 193.572 39.4439 193.891 39.3123C194.209 39.1807 194.495 38.9809 194.729 38.7268C194.963 38.4727 195.14 38.1703 195.247 37.8405C195.354 37.5107 195.389 37.1616 195.349 36.8169C195.349 30.0373 195.349 23.2688 195.349 16.4672C195.349 14.4355 195.032 14.2588 191.232 13.4417C191.681 12.8124 192.01 11.918 192.327 11.918C195.973 11.8186 199.63 11.8517 203.352 11.8517V13.5853C202.761 13.6847 202.257 13.784 201.721 13.8503C201.421 13.8598 201.127 13.9312 200.856 14.0601C200.59 14.1936 200.349 14.373 200.144 14.5901C199.943 14.8145 199.789 15.0784 199.693 15.3652C199.597 15.652 199.561 15.9557 199.586 16.2574C199.586 19.0178 199.586 21.7782 199.586 24.6711H212.614C212.614 21.7672 212.724 18.8963 212.614 16.0476C212.505 13.8392 210.654 13.8392 208.925 13.6405C208.925 13.1326 208.837 12.6246 208.793 11.9842L220.562 12.0063Z" fill="white"/>
<path d="M253.001 13.9018V11.9585C258.048 12.1572 263.019 12.0247 267.913 12.6431C273.024 13.2835 275.577 17.4793 273.705 21.8187C273.013 23.4639 271.307 24.6785 270.036 26.1139C269.805 25.9594 269.971 26.1139 270.158 26.1911C274.132 27.6156 275.631 30.111 275.302 34.5388C275.181 36.1911 274.456 37.7388 273.265 38.8815C272.076 40.024 270.507 40.68 268.866 40.722C263.643 41.1639 258.398 41.1526 253.023 41.3294C253.023 40.5674 252.935 40.0817 252.892 39.4743C253.264 39.4743 253.538 39.3638 253.811 39.3419C255.913 39.1651 256.68 38.569 256.691 36.5593C256.767 29.9342 256.691 23.3094 256.691 16.6843C256.713 14.2662 254.884 14.0122 253.001 13.9018ZM260.981 38.9996C262.657 38.9996 264.135 38.9996 265.603 38.9996C269.215 38.9113 270.901 37.2549 270.968 33.6445C270.965 32.7002 270.88 31.758 270.714 30.8286C270.637 29.9635 270.269 29.1506 269.673 28.5244C269.075 27.8982 268.286 27.4958 267.431 27.3837C265.362 27.0636 263.237 27.0636 261.005 26.909L260.981 38.9996ZM260.981 14.2993V24.9546C263.84 24.6012 267.004 25.8048 268.91 22.945C269.572 21.9872 269.938 20.8521 269.958 19.6841C269.982 18.5161 269.658 17.3681 269.029 16.3862C267.157 13.4933 263.938 14.4539 261.005 14.2993H260.981Z" fill="white"/>
<path d="M240.415 13.5816V12.0027H250.564V13.5375C246.776 14.3545 246.776 14.3545 246.776 18.3406V32.3195C246.776 37.7519 243.546 41.0534 238.127 41.1526C236.419 41.2174 234.709 41.0988 233.025 40.7993C229.423 40.1149 227.212 37.8733 226.851 34.2516C226.533 31.0937 226.621 27.9026 226.566 24.7117C226.566 22.5033 226.566 20.2398 226.566 17.9983C226.566 14.222 226.566 14.222 222.811 13.4933V11.9585H234.58V13.5375C233.967 13.67 233.397 13.8245 232.817 13.8908C232.534 13.8983 232.256 13.9648 232 14.0862C231.744 14.2075 231.516 14.381 231.33 14.5957C231.144 14.8105 231.004 15.0618 230.918 15.3339C230.834 15.6059 230.805 15.8928 230.836 16.1764C230.836 21.896 230.715 27.6266 230.89 33.3353C231.011 37.3763 234.799 39.5738 239.408 38.5912C240.774 38.4282 242.029 37.7529 242.924 36.6992C243.818 35.6455 244.287 34.2908 244.236 32.9047C244.313 27.3837 244.291 21.9292 244.236 16.4414C244.203 14.3877 243.733 14.1227 240.415 13.5816Z" fill="white"/>
<path d="M85.9359 41.1033H77.4072V13.709H85.9576L85.9359 41.1033Z" fill="white"/>
<path d="M85.9359 41.1033H77.4072V13.709H85.9576L85.9359 41.1033Z" fill="white"/>
<path d="M171.663 41.0639H163.452V18.8039C165.489 18.8039 167.448 18.7376 169.408 18.8039C169.802 18.8039 170.295 19.4001 170.503 19.8307C170.798 20.5633 171.029 21.3207 171.193 22.0943C171.952 21.3117 172.757 20.5743 173.601 19.8859C174.422 19.2311 175.353 18.73 176.349 18.4064C178.539 17.8432 179.349 18.5278 179.228 20.8245C179.141 22.4145 178.922 23.9934 178.736 25.9036C177.061 25.9036 175.451 25.992 173.831 25.9036C172.211 25.8153 171.543 26.3343 171.587 28.1119C171.762 32.4182 171.663 36.6583 171.663 41.0639Z" fill="white"/>
<path d="M77.2535 6.48351L72.2832 3.85557C74.0113 3.20119 75.6937 2.43021 77.3192 1.54787C78.675 0.564767 80.3025 0.0358887 81.9723 0.0358887C83.6419 0.0358887 85.2695 0.564767 86.6252 1.54787C88.1318 2.37462 89.6939 3.09407 91.3 3.70101C88.7929 5.90933 89.6797 8.43788 90.2053 10.7787C90.5665 12.5012 90.7198 12.5012 89.2307 14.1575C87.0413 11.2977 90.3912 8.25017 88.585 5.37932L85.7384 6.94726C84.7299 7.63402 83.55 8.02006 82.3338 8.06108C81.1176 8.10208 79.9147 7.79642 78.8629 7.17912C78.3459 6.90428 77.8076 6.67166 77.2535 6.48351Z" fill="white"/>
<path d="M77.2535 6.48351L72.2832 3.85557C74.0113 3.20119 75.6937 2.43021 77.3192 1.54787C78.675 0.564767 80.3025 0.0358887 81.9723 0.0358887C83.6419 0.0358887 85.2695 0.564767 86.6252 1.54787C88.1318 2.37462 89.6939 3.09407 91.3 3.70101C88.7929 5.90933 89.6797 8.43788 90.2053 10.7787C90.5665 12.5012 90.7198 12.5012 89.2307 14.1575C87.0413 11.2977 90.3912 8.25017 88.585 5.37932L85.7384 6.94726C84.7299 7.63402 83.55 8.02006 82.3338 8.06108C81.1176 8.10208 79.9147 7.79642 78.8629 7.17912C78.3459 6.90428 77.8076 6.67166 77.2535 6.48351Z" fill="white"/>
<path d="M77.2489 6.48568C77.8105 6.67294 78.3591 6.89796 78.891 7.15923C79.9396 7.77844 81.1405 8.08624 82.3548 8.04717C83.5694 8.0081 84.7483 7.62374 85.7555 6.93839L87.6058 6.41943C88.164 10.008 87.7371 10.9355 84.4418 11.3992C82.3792 11.6209 80.2946 11.5091 78.267 11.068C77.8379 10.9597 77.4382 10.7565 77.0969 10.4729C76.7554 10.1894 76.4809 9.83269 76.2932 9.42879C76.1055 9.02486 76.0094 8.58386 76.0118 8.13781C76.0143 7.69177 76.1153 7.25186 76.3074 6.85007C76.3841 6.66234 76.9094 6.66234 77.2489 6.48568Z" fill="white"/>
<path d="M77.2489 6.48568C77.8105 6.67294 78.3591 6.89796 78.891 7.15923C79.9396 7.77844 81.1405 8.08624 82.3548 8.04717C83.5694 8.0081 84.7483 7.62374 85.7555 6.93839L87.6058 6.41943C88.164 10.008 87.7371 10.9355 84.4418 11.3992C82.3792 11.6209 80.2946 11.5091 78.267 11.068C77.8379 10.9597 77.4382 10.7565 77.0969 10.4729C76.7554 10.1894 76.4809 9.83269 76.2932 9.42879C76.1055 9.02486 76.0094 8.58386 76.0118 8.13781C76.0143 7.69177 76.1153 7.25186 76.3074 6.85007C76.3841 6.66234 76.9094 6.66234 77.2489 6.48568Z" fill="white"/>
</g>
<defs>
<linearGradient id="paint0_linear_57_517" x1="234.368" y1="54.5826" x2="234.368" y2="-1.34351" gradientUnits="userSpaceOnUse">
<stop stop-color="#003F51"/>
<stop offset="0.11" stop-color="#003B4C"/>
<stop offset="0.61" stop-color="#002F3C"/>
<stop offset="0.99" stop-color="#002B36"/>
</linearGradient>
<clipPath id="clip0_57_517">
<rect width="283.52" height="50.6603" fill="white" transform="translate(0.744141 0.0358887)"/>
</clipPath>
</defs>
</svg>
