<svg width="27" height="27" viewBox="0 0 27 27" fill="none" xmlns="http://www.w3.org/2000/svg">
<path d="M9.36309 3.25467C9.94169 3.08022 10.5626 3.1092 11.1224 3.33679C11.6823 3.56438 12.1473 3.97685 12.44 4.50554L12.5379 4.70256L13.4132 6.64762C13.6789 7.23799 13.7651 7.89344 13.6612 8.53243C13.5573 9.17143 13.2678 9.76577 12.8288 10.2415L12.6529 10.4161L11.2738 11.7027C11.0252 11.938 11.2116 12.8491 12.1108 14.4067C12.92 15.8083 13.5785 16.4628 13.9024 16.4985H13.9593L14.0294 16.4853L16.74 15.6562C17.1043 15.5445 17.4931 15.5401 17.8599 15.6435C18.2266 15.7469 18.5558 15.9538 18.8081 16.2394L18.9284 16.3914L20.7227 18.8773C21.0744 19.3645 21.2496 19.957 21.2196 20.5572C21.1895 21.1573 20.956 21.7293 20.5574 22.179L20.3961 22.3456L19.6794 23.0253C19.0359 23.6347 18.2309 24.0466 17.36 24.2118C16.4892 24.3771 15.5893 24.2888 14.7672 23.9575C12.2086 22.9261 9.88406 20.5698 7.77239 16.9124C5.65676 13.2457 4.77745 10.0498 5.17017 7.31272C5.289 6.48533 5.62971 5.70557 6.1561 5.05626C6.68249 4.40695 7.37491 3.91232 8.15982 3.62491L8.41502 3.54028L9.36309 3.25467Z" fill="black"/>
</svg>
