<svg width="34" height="34" viewBox="0 0 34 34" fill="none" xmlns="http://www.w3.org/2000/svg">
<path fill-rule="evenodd" clip-rule="evenodd" d="M17.2678 4.19092C9.50625 4.19092 3.21973 10.4469 3.21973 18.1707C3.21973 24.3568 7.24099 29.5817 12.8251 31.434C13.5275 31.5564 13.7909 31.137 13.7909 30.77C13.7909 30.438 13.7734 29.3371 13.7734 28.1663C10.2438 28.8128 9.33065 27.31 9.04969 26.5236C8.89165 26.1217 8.2068 24.881 7.60976 24.549C7.11807 24.2869 6.41567 23.6403 7.5922 23.6228C8.69848 23.6054 9.48869 24.6364 9.75209 25.0558C11.0164 27.1702 13.0358 26.5761 13.8436 26.2091C13.9665 25.3004 14.3353 24.6888 14.7392 24.3393C11.6135 23.9898 8.34728 22.784 8.34728 17.4368C8.34728 15.9165 8.89165 14.6583 9.78721 13.6797C9.64673 13.3302 9.15505 11.8973 9.92769 9.97506C9.92769 9.97506 11.1042 9.60809 13.7909 11.408C14.9148 11.0934 16.1089 10.9362 17.3029 10.9362C18.497 10.9362 19.6911 11.0934 20.815 11.408C23.5017 9.59061 24.6782 9.97506 24.6782 9.97506C25.4508 11.8973 24.9592 13.3302 24.8187 13.6797C25.7142 14.6583 26.2586 15.899 26.2586 17.4368C26.2586 22.8015 22.9749 23.9898 19.8492 24.3393C20.3584 24.7762 20.7974 25.615 20.7974 26.9256C20.7974 28.7954 20.7798 30.2982 20.7798 30.77C20.7798 31.137 21.0433 31.5738 21.7457 31.434C27.2947 29.5817 31.3159 24.3393 31.3159 18.1707C31.3159 10.4469 25.0294 4.19092 17.2678 4.19092Z" fill="#1B1F23"/>
</svg>
