<svg width="34" height="34" viewBox="0 0 34 34" fill="none" xmlns="http://www.w3.org/2000/svg">
<path d="M2.17188 13.2347C2.17188 9.63516 2.17188 7.83536 2.8724 6.4605C3.4886 5.25114 4.47184 4.2679 5.68121 3.6517C7.05607 2.95117 8.85586 2.95117 12.4555 2.95117H20.8109C24.4104 2.95117 26.2102 2.95117 27.5851 3.6517C28.7945 4.2679 29.7777 5.25114 30.3939 6.4605C31.0944 7.83536 31.0944 9.63516 31.0944 13.2347V21.5902C31.0944 25.1897 31.0944 26.9895 30.3939 28.3644C29.7777 29.5738 28.7945 30.557 27.5851 31.1732C26.2102 31.8737 24.4104 31.8737 20.8109 31.8737H12.4554C8.85586 31.8737 7.05607 31.8737 5.68121 31.1732C4.47184 30.557 3.4886 29.5738 2.8724 28.3644C2.17188 26.9895 2.17188 25.1897 2.17188 21.5902V13.2347Z" fill="white"/>
<path d="M22.8832 9.68945L16.6988 14.5158L10.373 9.68945V9.69076L10.3807 9.69728V16.4555L16.6275 21.3862L22.8832 16.6459V9.68945Z" fill="#EA4335"/>
<path d="M24.5079 8.51533L22.8838 9.68931V16.6458L27.9943 12.7221V10.3585C27.9943 10.3585 27.374 6.98263 24.5079 8.51533Z" fill="#FBBC05"/>
<path d="M22.8838 16.6459V25.6686H26.8008C26.8008 25.6686 27.9154 25.5538 27.9956 24.2833V12.7222L22.8838 16.6459Z" fill="#34A853"/>
<path d="M10.381 25.6762V16.4553L10.373 16.4487L10.381 25.6762Z" fill="#C5221F"/>
<path d="M10.3734 9.69072L8.75821 8.52326C5.89213 6.99056 5.27051 10.3651 5.27051 10.3651V12.7287L10.3734 16.4489V9.69072Z" fill="#C5221F"/>
<path d="M10.373 9.69043V16.4487L10.381 16.4552V9.69695L10.373 9.69043Z" fill="#C5221F"/>
<path d="M5.27051 12.73V24.2911C5.34948 25.5629 6.46535 25.6764 6.46535 25.6764H10.3823L10.3734 16.4489L5.27051 12.73Z" fill="#4285F4"/>
</svg>
