<svg width="69" height="75" viewBox="0 0 69 75" fill="none" xmlns="http://www.w3.org/2000/svg">
<path d="M34.7585 32.8885C34.7585 32.8885 45.2709 23.6932 52.5899 25.0975C52.5899 25.0975 67.1571 25.7657 43.8579 74.0215C43.8579 74.0215 62.534 60.5223 67.864 38.0732C67.864 38.0732 71.1878 22.5401 63.0116 15.0568C63.0116 15.0568 51.624 3.13931 34.7593 22.1468C17.8939 3.14015 6.50615 15.061 6.50615 15.061C-1.67001 22.5435 1.65375 38.0766 1.65375 38.0766C6.9838 60.5257 25.66 74.0248 25.66 74.0248C2.35991 25.7691 16.927 25.1009 16.927 25.1009C24.2452 23.6966 34.7585 32.8885 34.7585 32.8885Z" fill="#8B0000"/>
<path d="M41.9822 8.16261C41.9822 12.2802 38.7057 15.6181 34.6639 15.6181C30.6222 15.6181 27.3457 12.2802 27.3457 8.16261C27.3457 4.045 30.6222 0.707031 34.6639 0.707031C38.7057 0.707031 41.9822 4.045 41.9822 8.16261Z" fill="#8B0000"/>
</svg>
