<svg width="102" height="26" viewBox="0 0 102 26" fill="none" xmlns="http://www.w3.org/2000/svg">
<path d="M98.3156 4.16848C97.1505 2.99748 95.7627 2.06902 94.2332 1.43727C92.7037 0.805514 91.0631 0.483105 89.4071 0.488845C82.4683 0.488845 76.8131 6.11578 76.8131 13.0198C76.8131 15.2327 77.3977 17.3823 78.4906 19.279L76.7114 25.7784L83.3833 24.0335C85.226 25.0324 87.2975 25.5635 89.4071 25.5635C96.3458 25.5635 102.001 19.9365 102.001 13.0325C102.001 9.68161 100.692 6.53306 98.3156 4.16848ZM89.4071 23.4392C87.5262 23.4392 85.6835 22.9334 84.0696 21.985L83.6883 21.7574L79.7233 22.7943L80.7781 18.9502L80.5239 18.5583C79.479 16.898 78.9241 14.9788 78.9227 13.0198C78.9227 7.2791 83.6248 2.60053 89.3943 2.60053C92.1902 2.60053 94.8208 3.68798 96.7906 5.66057C97.7659 6.62658 98.5389 7.77561 99.0646 9.04106C99.5904 10.3065 99.8584 11.6632 99.8533 13.0325C99.8787 18.7732 95.1766 23.4392 89.4071 23.4392ZM95.1512 15.65C94.8335 15.4982 93.2831 14.7395 93.0035 14.6257C92.7112 14.5246 92.5079 14.474 92.2918 14.7775C92.0758 15.0936 91.4785 15.8017 91.3006 16.004C91.1227 16.219 90.9321 16.2443 90.6143 16.0799C90.2966 15.9281 89.28 15.5867 88.0854 14.5246C87.145 13.69 86.5223 12.6658 86.3316 12.3497C86.1537 12.0335 86.3062 11.8692 86.4714 11.7048C86.6112 11.5657 86.7891 11.3381 86.9416 11.1611C87.0941 10.984 87.1577 10.8449 87.2593 10.6426C87.361 10.4277 87.3102 10.2506 87.2339 10.0989C87.1577 9.94715 86.5223 8.40449 86.2681 7.77225C86.0139 7.1653 85.7471 7.24117 85.5564 7.22852H84.9464C84.7304 7.22852 84.4 7.30439 84.1077 7.62051C83.8281 7.93663 83.0148 8.69532 83.0148 10.238C83.0148 11.7806 84.1458 13.2727 84.2983 13.4751C84.4508 13.69 86.5223 16.8512 89.6739 18.2042C90.4237 18.533 91.0083 18.7226 91.4658 18.8617C92.2156 19.102 92.9018 19.0641 93.4483 18.9882C94.0583 18.8997 95.3164 18.2295 95.5706 17.4961C95.8375 16.7627 95.8375 16.1431 95.7485 16.004C95.6596 15.8649 95.4689 15.8017 95.1512 15.65Z" fill="black"/>
<path fill-rule="evenodd" clip-rule="evenodd" d="M59.8521 0.48877C60.9699 0.48877 62.042 0.932843 62.8325 1.7233C63.6229 2.51375 64.067 3.58584 64.067 4.70371V21.5635C64.067 22.6814 63.6229 23.7535 62.8325 24.5439C62.042 25.3344 60.9699 25.7784 59.8521 25.7784H42.9923C41.8744 25.7784 40.8023 25.3344 40.0119 24.5439C39.2214 23.7535 38.7773 22.6814 38.7773 21.5635V4.70371C38.7773 3.58584 39.2214 2.51375 40.0119 1.7233C40.8023 0.932843 41.8744 0.48877 42.9923 0.48877H59.8521ZM45.8023 10.3236C45.4296 10.3236 45.0723 10.4717 44.8088 10.7352C44.5453 10.9986 44.3973 11.356 44.3973 11.7286V18.7535C44.3973 19.1262 44.5453 19.4835 44.8088 19.747C45.0723 20.0105 45.4296 20.1585 45.8023 20.1585C46.1749 20.1585 46.5322 20.0105 46.7957 19.747C47.0592 19.4835 47.2072 19.1262 47.2072 18.7535V11.7286C47.2072 11.356 47.0592 10.9986 46.7957 10.7352C46.5322 10.4717 46.1749 10.3236 45.8023 10.3236ZM50.0172 8.91866C49.6446 8.91866 49.2872 9.06668 49.0237 9.33017C48.7602 9.59365 48.6122 9.95102 48.6122 10.3236V18.7535C48.6122 19.1262 48.7602 19.4835 49.0237 19.747C49.2872 20.0105 49.6446 20.1585 50.0172 20.1585C50.3898 20.1585 50.7472 20.0105 51.0107 19.747C51.2742 19.4835 51.4222 19.1262 51.4222 18.7535V13.6113C51.8507 13.128 52.5743 12.5604 53.3793 12.2162C53.8472 12.0166 54.5511 11.9352 55.04 12.0897C55.2022 12.1309 55.3467 12.2235 55.4517 12.3538C55.5247 12.4522 55.6371 12.6714 55.6371 13.1336V18.7535C55.6371 19.1262 55.7851 19.4835 56.0486 19.747C56.3121 20.0105 56.6695 20.1585 57.0421 20.1585C57.4147 20.1585 57.7721 20.0105 58.0356 19.747C58.2991 19.4835 58.4471 19.1262 58.4471 18.7535V13.1336C58.4471 12.1923 58.2082 11.3549 57.7109 10.6833C57.2532 10.0743 56.6127 9.62779 55.883 9.409C54.6157 9.01139 53.2121 9.23197 52.275 9.63379C51.9747 9.7623 51.6825 9.90868 51.3997 10.0721C51.3408 9.74842 51.1702 9.45564 50.9175 9.24484C50.6649 9.03405 50.3462 8.91861 50.0172 8.91866ZM45.8023 6.1087C45.4296 6.1087 45.0723 6.25672 44.8088 6.52021C44.5453 6.78369 44.3973 7.14105 44.3973 7.51368C44.3973 7.8863 44.5453 8.24366 44.8088 8.50715C45.0723 8.77063 45.4296 8.91866 45.8023 8.91866C46.1749 8.91866 46.5322 8.77063 46.7957 8.50715C47.0592 8.24366 47.2072 7.8863 47.2072 7.51368C47.2072 7.14105 47.0592 6.78369 46.7957 6.52021C46.5322 6.25672 46.1749 6.1087 45.8023 6.1087Z" fill="black"/>
<path d="M13.4876 0.48877C11.8271 0.48877 10.1828 0.823958 8.64864 1.4752C7.1145 2.12644 5.72054 3.08097 4.54636 4.2843C2.17499 6.71454 0.842773 10.0107 0.842773 13.4475C0.842773 19.1753 4.47184 24.0348 9.49184 25.7584C10.1241 25.862 10.3264 25.4603 10.3264 25.1104V22.9204C6.82378 23.6979 6.07773 21.1839 6.07773 21.1839C5.49607 19.6807 4.67416 19.279 4.67416 19.279C3.52348 18.4755 4.76267 18.5015 4.76267 18.5015C6.02716 18.5922 6.69733 19.8362 6.69733 19.8362C7.79743 21.8059 9.65622 21.2228 10.377 20.9118C10.4908 20.0695 10.8195 19.4993 11.1736 19.1753C8.36645 18.8513 5.4202 17.7369 5.4202 12.7996C5.4202 11.3612 5.90071 10.2078 6.72262 9.28777C6.59617 8.9638 6.1536 7.61609 6.84907 5.86666C6.84907 5.86666 7.91124 5.51677 10.3264 7.18845C11.3253 6.90336 12.4128 6.76081 13.4876 6.76081C14.5624 6.76081 15.6499 6.90336 16.6488 7.18845C19.064 5.51677 20.1261 5.86666 20.1261 5.86666C20.8216 7.61609 20.379 8.9638 20.2526 9.28777C21.0745 10.2078 21.555 11.3612 21.555 12.7996C21.555 17.7498 18.5961 18.8384 15.7763 19.1624C16.2315 19.5641 16.6488 20.3546 16.6488 21.5597V25.1104C16.6488 25.4603 16.8511 25.875 17.496 25.7584C22.516 24.0219 26.1324 19.1753 26.1324 13.4475C26.1324 11.7458 25.8054 10.0607 25.1699 8.48843C24.5345 6.9162 23.603 5.48764 22.4289 4.2843C21.2547 3.08097 19.8607 2.12644 18.3266 1.4752C16.7924 0.823958 15.1482 0.48877 13.4876 0.48877Z" fill="black"/>
</svg>
