<svg width="22" height="21" viewBox="0 0 22 21" fill="none" xmlns="http://www.w3.org/2000/svg">
<path d="M17.9615 4.73128C17.9615 5.587 17.2678 6.2807 16.4121 6.2807C15.5563 6.2807 14.8626 5.587 14.8626 4.73128C14.8626 3.87555 15.5563 3.18185 16.4121 3.18185C17.2678 3.18185 17.9615 3.87555 17.9615 4.73128Z" fill="white"/>
<path fill-rule="evenodd" clip-rule="evenodd" d="M10.7309 15.5772C13.5833 15.5772 15.8956 13.2649 15.8956 10.4125C15.8956 7.56008 13.5833 5.24775 10.7309 5.24775C7.87844 5.24775 5.56611 7.56008 5.56611 10.4125C5.56611 13.2649 7.87844 15.5772 10.7309 15.5772ZM10.7309 13.5113C12.4423 13.5113 13.8297 12.1239 13.8297 10.4125C13.8297 8.70105 12.4423 7.31365 10.7309 7.31365C9.0194 7.31365 7.632 8.70105 7.632 10.4125C7.632 12.1239 9.0194 13.5113 10.7309 13.5113Z" fill="white"/>
<path fill-rule="evenodd" clip-rule="evenodd" d="M0.401367 9.99931C0.401367 6.52828 0.401367 4.79276 1.07687 3.46701C1.67107 2.30083 2.61919 1.35271 3.78536 0.758516C5.11112 0.0830078 6.84664 0.0830078 10.3177 0.0830078H11.144C14.6151 0.0830078 16.3506 0.0830078 17.6763 0.758516C18.8425 1.35271 19.7906 2.30083 20.3848 3.46701C21.0603 4.79276 21.0603 6.52828 21.0603 9.99931V10.8257C21.0603 14.2967 21.0603 16.0322 20.3848 17.358C19.7906 18.5241 18.8425 19.4723 17.6763 20.0665C16.3506 20.742 14.6151 20.742 11.144 20.742H10.3177C6.84664 20.742 5.11112 20.742 3.78536 20.0665C2.61919 19.4723 1.67107 18.5241 1.07687 17.358C0.401367 16.0322 0.401367 14.2967 0.401367 10.8257V9.99931ZM10.3177 2.1489H11.144C12.9136 2.1489 14.1166 2.15051 15.0464 2.22648C15.9522 2.30048 16.4153 2.43461 16.7384 2.59924C17.5159 2.99537 18.148 3.62746 18.5441 4.4049C18.7087 4.72801 18.8429 5.19119 18.9169 6.09691C18.9928 7.02675 18.9944 8.22971 18.9944 9.99931V10.8257C18.9944 12.5953 18.9928 13.7982 18.9169 14.7281C18.8429 15.6338 18.7087 16.097 18.5441 16.4201C18.148 17.1975 17.5159 17.8296 16.7384 18.2257C16.4153 18.3904 15.9522 18.5245 15.0464 18.5985C14.1166 18.6745 12.9136 18.6761 11.144 18.6761H10.3177C8.54807 18.6761 7.34511 18.6745 6.41527 18.5985C5.50955 18.5245 5.04637 18.3904 4.72326 18.2257C3.94582 17.8296 3.31373 17.1975 2.9176 16.4201C2.75297 16.097 2.61884 15.6338 2.54484 14.7281C2.46887 13.7982 2.46726 12.5953 2.46726 10.8257V9.99931C2.46726 8.22971 2.46887 7.02675 2.54484 6.09691C2.61884 5.19119 2.75297 4.72801 2.9176 4.4049C3.31373 3.62746 3.94582 2.99537 4.72326 2.59924C5.04637 2.43461 5.50955 2.30048 6.41527 2.22648C7.34511 2.15051 8.54807 2.1489 10.3177 2.1489Z" fill="white"/>
</svg>
