<svg width="16" height="15" viewBox="0 0 16 15" fill="none" xmlns="http://www.w3.org/2000/svg">
<path d="M3.87255 1.89683C3.87255 2.86217 3.03582 3.64473 2.00366 3.64473C0.971497 3.64473 0.134766 2.86217 0.134766 1.89683C0.134766 0.931488 0.971497 0.148926 2.00366 0.148926C3.03582 0.148926 3.87255 0.931488 3.87255 1.89683Z" fill="white"/>
<path d="M0.39034 4.92951H3.58503V14.6102H0.39034V4.92951Z" fill="white"/>
<path d="M8.72847 4.92951H5.53378V14.6102H8.72847C8.72847 14.6102 8.72847 11.5626 8.72847 9.65707C8.72847 8.51335 9.119 7.36462 10.6772 7.36462C12.4382 7.36462 12.4276 8.86136 12.4194 10.0209C12.4087 11.5366 12.4343 13.0834 12.4343 14.6102H15.629V9.50095C15.6019 6.23855 14.7518 4.7353 11.9551 4.7353C10.2942 4.7353 9.2647 5.48933 8.72847 6.17152V4.92951Z" fill="white"/>
</svg>
