<svg width="28" height="28" viewBox="0 0 28 28" fill="none" xmlns="http://www.w3.org/2000/svg">
<path d="M14.1634 13.2644C13.4328 13.2644 12.7322 12.9741 12.2156 12.4575C11.6989 11.9409 11.4087 11.2402 11.4087 10.5096C11.4087 9.77903 11.6989 9.07836 12.2156 8.56174C12.7322 8.04513 13.4328 7.7549 14.1634 7.7549C14.894 7.7549 15.5947 8.04513 16.1113 8.56174C16.6279 9.07836 16.9182 9.77903 16.9182 10.5096C16.9182 10.8714 16.8469 11.2296 16.7085 11.5638C16.57 11.898 16.3671 12.2017 16.1113 12.4575C15.8555 12.7133 15.5518 12.9162 15.2176 13.0547C14.8834 13.1931 14.5252 13.2644 14.1634 13.2644ZM14.1634 2.79639C12.1178 2.79639 10.1559 3.60903 8.70935 5.05554C7.26284 6.50206 6.4502 8.46395 6.4502 10.5096C6.4502 16.2946 14.1634 24.8342 14.1634 24.8342C14.1634 24.8342 21.8767 16.2946 21.8767 10.5096C21.8767 8.46395 21.064 6.50206 19.6175 5.05554C18.171 3.60903 16.2091 2.79639 14.1634 2.79639Z" fill="black"/>
</svg>
