<svg width="28" height="27" viewBox="0 0 28 27" fill="none" xmlns="http://www.w3.org/2000/svg">
<g clip-path="url(#clip0_57_500)">
<path d="M25.1306 8.3606V18.79C25.1307 19.6332 24.8085 20.4445 24.2301 21.058C23.6516 21.6715 22.8606 22.0407 22.0189 22.0902L21.8249 22.0957H6.39845C5.55527 22.0957 4.74394 21.7736 4.13047 21.1951C3.51699 20.6167 3.14775 19.8257 3.09828 18.9839L3.09277 18.79V8.3606L13.5001 15.2992L13.628 15.3719C13.7786 15.4455 13.944 15.4838 14.1117 15.4838C14.2793 15.4838 14.4448 15.4455 14.5954 15.3719L14.7232 15.2992L25.1306 8.3606Z" fill="black"/>
<path d="M21.8248 4.46509C23.0149 4.46509 24.0584 5.09317 24.6402 6.03749L14.1116 13.0565L3.58301 6.03749C3.85929 5.58876 4.23887 5.21261 4.69009 4.94043C5.14131 4.66824 5.65107 4.5079 6.17686 4.4728L6.39834 4.46509H21.8248Z" fill="black"/>
</g>
<defs>
<clipPath id="clip0_57_500">
<rect width="26.4454" height="26.4454" fill="white" transform="translate(0.888672 0.0576172)"/>
</clipPath>
</defs>
</svg>
