<svg width="53" height="52" viewBox="0 0 53 52" fill="none" xmlns="http://www.w3.org/2000/svg">
<path d="M31.9156 0.836491C34.5562 1.4284 36.2727 4.30828 35.7445 7.26784L35.5109 8.56549C34.9727 11.6047 33.9773 14.496 32.5859 17.1254H47.2109C49.9023 17.1254 52.0859 19.5728 52.0859 22.5892C52.0859 24.6951 51.0195 26.5277 49.4555 27.4384C50.5625 28.4401 51.2734 29.9767 51.2734 31.6956C51.2734 34.3592 49.5672 36.5788 47.3227 37.0569C47.7695 37.8879 48.0234 38.8554 48.0234 39.8913C48.0234 42.3158 46.6117 44.3761 44.6617 45.0819C44.7328 45.4575 44.7734 45.8559 44.7734 46.2657C44.7734 49.2822 42.5898 51.7295 39.8984 51.7295H29.9961C28.0664 51.7295 26.1875 51.092 24.5828 49.8968L20.6727 46.9714C17.9609 44.9453 16.3359 41.5304 16.3359 37.8765V33.5168V28.053V25.2187C16.3359 21.8949 17.6867 18.7646 19.9922 16.6815L20.7437 16.0099C23.4352 13.5967 25.2734 10.2046 25.9438 6.4255L26.1773 5.12785C26.7055 2.16829 29.275 0.24458 31.9156 0.836491ZM3.33594 18.9467H9.83594C11.6336 18.9467 13.0859 20.5745 13.0859 22.5892V48.087C13.0859 50.1017 11.6336 51.7295 9.83594 51.7295H3.33594C1.53828 51.7295 0.0859375 50.1017 0.0859375 48.087V22.5892C0.0859375 20.5745 1.53828 18.9467 3.33594 18.9467Z" fill="black"/>
</svg>
