<svg width="46" height="52" viewBox="0 0 46 52" fill="none" xmlns="http://www.w3.org/2000/svg">
<path d="M23.1191 26.2295C26.5291 26.2295 29.7993 24.8862 32.2105 22.4951C34.6217 20.104 35.9763 16.861 35.9763 13.4795C35.9763 10.098 34.6217 6.85497 32.2105 4.46388C29.7993 2.07279 26.5291 0.729492 23.1191 0.729492C19.7092 0.729492 16.4389 2.07279 14.0278 4.46388C11.6166 6.85497 10.262 10.098 10.262 13.4795C10.262 16.861 11.6166 20.104 14.0278 22.4951C16.4389 24.8862 19.7092 26.2295 23.1191 26.2295ZM18.5287 31.0107C8.63477 31.0107 0.619141 38.9596 0.619141 48.7711C0.619141 50.4047 1.95508 51.7295 3.6024 51.7295H42.6359C44.2832 51.7295 45.6191 50.4047 45.6191 48.7711C45.6191 38.9596 37.6035 31.0107 27.7095 31.0107H18.5287Z" fill="black"/>
</svg>
