<svg width="21" height="19" viewBox="0 0 21 19" fill="none" xmlns="http://www.w3.org/2000/svg">
<path d="M10.3587 8.0646C10.1236 8.06599 9.89413 8.13749 9.69929 8.27009C9.50445 8.40268 9.35296 8.59043 9.26393 8.80965C9.1749 9.02886 9.15232 9.26973 9.19903 9.50185C9.24575 9.73398 9.35967 9.94697 9.52643 10.114C9.69319 10.2809 9.90531 10.3944 10.136 10.4401C10.3668 10.4858 10.6058 10.4617 10.8229 10.3707C11.04 10.2798 11.2255 10.1261 11.356 9.92907C11.4865 9.73204 11.5561 9.5005 11.5561 9.26365C11.5557 9.10573 11.5243 8.94944 11.4639 8.80371C11.4035 8.65799 11.3152 8.52568 11.204 8.41434C11.0928 8.303 10.9609 8.2148 10.8159 8.1548C10.6709 8.09479 10.5155 8.06414 10.3587 8.0646ZM6.50122 8.0646C6.26608 8.06599 6.03662 8.13749 5.84177 8.27009C5.64693 8.40268 5.49544 8.59043 5.40641 8.80965C5.31738 9.02886 5.2948 9.26973 5.34152 9.50185C5.38823 9.73398 5.50216 9.94697 5.66891 10.114C5.83567 10.2809 6.04779 10.3944 6.27852 10.4401C6.50925 10.4858 6.74824 10.4617 6.96535 10.3707C7.18247 10.2798 7.36798 10.1261 7.49848 9.92907C7.62897 9.73204 7.69862 9.5005 7.69862 9.26365C7.6977 8.94532 7.5715 8.64034 7.3477 8.41558C7.1239 8.19082 6.82075 8.0646 6.50471 8.0646H6.50122ZM14.2128 8.0646C13.9776 8.06599 13.7482 8.13749 13.5533 8.27009C13.3585 8.40268 13.207 8.59043 13.118 8.80965C13.0289 9.02886 13.0063 9.26973 13.0531 9.50185C13.0998 9.73398 13.2137 9.94697 13.3805 10.114C13.5472 10.2809 13.7593 10.3944 13.9901 10.4401C14.2208 10.4858 14.4598 10.4617 14.6769 10.3707C14.894 10.2798 15.0795 10.1261 15.21 9.92907C15.3405 9.73204 15.4102 9.5005 15.4102 9.26365C15.4092 8.94532 15.283 8.64034 15.0592 8.41558C14.8354 8.19082 14.5323 8.0646 14.2163 8.0646H14.2128ZM19.5819 6.12011C19.0408 5.26917 18.2797 4.51669 17.3232 3.88377C15.4765 2.66011 13.0503 1.98498 10.4914 1.98498C9.64859 1.98458 8.80742 2.05989 7.9779 2.21002C7.45951 1.70765 6.87866 1.27506 6.24987 0.923073C3.92489 -0.251359 1.8722 0.184657 0.831892 0.560898C0.753238 0.589081 0.682857 0.636682 0.627189 0.699345C0.571522 0.762008 0.532345 0.837733 0.513243 0.91959C0.494142 1.00145 0.495726 1.08682 0.517851 1.1679C0.539976 1.24898 0.581935 1.32318 0.639889 1.3837C1.3695 2.14673 2.58087 3.65169 2.28413 5.02304C1.12862 6.21505 0.50025 7.6532 0.50025 9.14761C0.50025 10.6737 1.12862 12.1083 2.28413 13.3003C2.58087 14.6717 1.3695 16.1766 0.639889 16.9397C0.582803 17.0004 0.541683 17.0746 0.520259 17.1555C0.498834 17.2363 0.497781 17.3213 0.517196 17.4027C0.536611 17.484 0.575879 17.5592 0.631441 17.6214C0.687003 17.6836 0.757102 17.7309 0.835383 17.7589C1.8722 18.1352 3.92489 18.5712 6.25685 17.4003C6.8856 17.0482 7.46644 16.6156 7.98488 16.1133C8.81441 16.2635 9.65557 16.3388 10.4984 16.3384C13.0573 16.3384 15.4835 15.6632 17.3302 14.4396C18.2867 13.8067 19.0443 13.0542 19.5889 12.2032C20.1928 11.2574 20.5 10.2377 20.5 9.17574C20.4965 8.0857 20.1893 7.06598 19.5854 6.12011H19.5819ZM10.3936 14.5732C9.34028 14.5762 8.29105 14.4402 7.27273 14.1688L6.57104 14.851C6.18146 15.2279 5.74633 15.554 5.27589 15.8215C4.70316 16.1108 4.08135 16.2885 3.44313 16.3454C3.47804 16.2821 3.50946 16.2188 3.54088 16.1555C4.24606 14.8498 4.43573 13.6766 4.10991 12.6357C2.95789 11.7215 2.26668 10.5541 2.26668 9.28123C2.26668 6.35921 5.90776 3.98925 10.3936 3.98925C14.8795 3.98925 18.5241 6.35921 18.5241 9.28123C18.5241 12.2032 14.883 14.5732 10.3936 14.5732Z" fill="black"/>
</svg>
