<svg width="22" height="20" viewBox="0 0 22 20" fill="none" xmlns="http://www.w3.org/2000/svg">
<path d="M10.8446 8.78272C10.586 8.78426 10.3335 8.86371 10.1192 9.01104C9.90489 9.15836 9.73825 9.36697 9.64032 9.61055C9.54239 9.85412 9.51755 10.1217 9.56894 10.3797C9.62033 10.6376 9.74564 10.8742 9.92908 11.0598C10.1125 11.2453 10.3458 11.3714 10.5996 11.4222C10.8534 11.473 11.1163 11.4462 11.3552 11.3451C11.594 11.244 11.798 11.0733 11.9416 10.8543C12.0851 10.6354 12.1618 10.3782 12.1618 10.115C12.1613 9.93952 12.1268 9.76587 12.0603 9.60396C11.9939 9.44204 11.8967 9.29503 11.7744 9.17131C11.6521 9.0476 11.507 8.94961 11.3475 8.88293C11.188 8.81626 11.0171 8.78221 10.8446 8.78272ZM6.60134 8.78272C6.34269 8.78426 6.09028 8.86371 5.87595 9.01104C5.66162 9.15836 5.49498 9.36697 5.39705 9.61055C5.29912 9.85412 5.27428 10.1217 5.32567 10.3797C5.37706 10.6376 5.50237 10.8742 5.68581 11.0598C5.86924 11.2453 6.10257 11.3714 6.35637 11.4222C6.61017 11.473 6.87307 11.4462 7.11189 11.3451C7.35072 11.244 7.55478 11.0733 7.69832 10.8543C7.84187 10.6354 7.91848 10.3782 7.91849 10.115C7.91747 9.76129 7.77866 9.42243 7.53247 9.1727C7.28629 8.92296 6.95283 8.78272 6.60519 8.78272H6.60134ZM15.084 8.78272C14.8254 8.78426 14.573 8.86371 14.3587 9.01104C14.1443 9.15836 13.9777 9.36697 13.8798 9.61055C13.7818 9.85412 13.757 10.1217 13.8084 10.3797C13.8598 10.6376 13.9851 10.8742 14.1685 11.0598C14.3519 11.2453 14.5853 11.3714 14.8391 11.4222C15.0929 11.473 15.3558 11.4462 15.5946 11.3451C15.8334 11.244 16.0375 11.0733 16.181 10.8543C16.3246 10.6354 16.4012 10.3782 16.4012 10.115C16.4002 9.76129 16.2614 9.42243 16.0152 9.1727C15.769 8.92296 15.4355 8.78272 15.0879 8.78272H15.084ZM20.9901 6.62217C20.3949 5.67669 19.5577 4.8406 18.5055 4.13735C16.4741 2.77772 13.8053 2.02759 10.9905 2.02759C10.0634 2.02713 9.13817 2.11081 8.22569 2.27763C7.65546 1.71944 7.01653 1.23879 6.32486 0.847685C3.76738 -0.45724 1.50942 0.0272236 0.365081 0.445268C0.278562 0.476583 0.201143 0.529473 0.139908 0.599099C0.0786738 0.668725 0.035579 0.752863 0.0145675 0.843815C-0.00644406 0.934767 -0.00470138 1.02963 0.0196361 1.11972C0.0439735 1.20981 0.0901285 1.29225 0.153878 1.3595C0.956451 2.20731 2.28895 3.87949 1.96255 5.4032C0.691487 6.72766 0.00027513 8.32561 0.00027513 9.98606C0.00027513 11.6817 0.691487 13.2757 1.96255 14.6002C2.28895 16.1239 0.956451 17.7961 0.153878 18.6439C0.0910829 18.7114 0.0458518 18.7939 0.0222847 18.8837C-0.00128241 18.9735 -0.00244036 19.0679 0.0189158 19.1583C0.040272 19.2487 0.0834671 19.3323 0.144585 19.4014C0.205703 19.4706 0.282812 19.5231 0.368921 19.5542C1.50942 19.9723 3.76738 20.4567 6.33254 19.1557C7.02416 18.7645 7.66308 18.2839 8.23337 17.7258C9.14585 17.8926 10.0711 17.9763 10.9982 17.9758C13.813 17.9758 16.4818 17.2257 18.5132 15.866C19.5654 15.1628 20.3987 14.3267 20.9977 13.3812C21.6621 12.3302 22 11.1972 22 10.0173C21.9962 8.80616 21.6582 7.67314 20.9939 6.62217H20.9901ZM10.883 16.0145C9.72431 16.0178 8.57016 15.8668 7.45 15.5652L6.67815 16.3232C6.24961 16.742 5.77096 17.1043 5.25348 17.4015C4.62347 17.7229 3.93948 17.9204 3.23745 17.9836C3.27585 17.9133 3.31041 17.843 3.34497 17.7726C4.12066 16.3218 4.32931 15.0182 3.9709 13.8618C2.70368 12.846 1.94335 11.5488 1.94335 10.1345C1.94335 6.88784 5.94853 4.25455 10.883 4.25455C15.8175 4.25455 19.8265 6.88784 19.8265 10.1345C19.8265 13.3812 15.8213 16.0145 10.883 16.0145Z" fill="black"/>
</svg>
