<svg width="19" height="19" viewBox="0 0 19 19" fill="none" xmlns="http://www.w3.org/2000/svg">
<path d="M10.625 1.28516C10.625 0.66289 10.1223 0.160156 9.5 0.160156C8.87773 0.160156 8.375 0.66289 8.375 1.28516V9.81758L5.79453 7.23711C5.35508 6.79766 4.64141 6.79766 4.20195 7.23711C3.7625 7.67656 3.7625 8.39023 4.20195 8.82969L8.70195 13.3297C9.1414 13.7691 9.85508 13.7691 10.2945 13.3297L14.7945 8.82969C15.234 8.39023 15.234 7.67656 14.7945 7.23711C14.3551 6.79766 13.6414 6.79766 13.202 7.23711L10.625 9.81758V1.28516ZM2.75 12.5352C1.50898 12.5352 0.5 13.5441 0.5 14.7852V15.9102C0.5 17.1512 1.50898 18.1602 2.75 18.1602H16.25C17.491 18.1602 18.5 17.1512 18.5 15.9102V14.7852C18.5 13.5441 17.491 12.5352 16.25 12.5352H12.6816L11.0891 14.1277C10.2102 15.0066 8.78633 15.0066 7.90742 14.1277L6.31836 12.5352H2.75ZM15.6875 14.5039C15.9113 14.5039 16.1259 14.5928 16.2841 14.751C16.4424 14.9093 16.5312 15.1239 16.5312 15.3477C16.5312 15.5714 16.4424 15.786 16.2841 15.9443C16.1259 16.1025 15.9113 16.1914 15.6875 16.1914C15.4637 16.1914 15.2491 16.1025 15.0909 15.9443C14.9326 15.786 14.8437 15.5714 14.8437 15.3477C14.8437 15.1239 14.9326 14.9093 15.0909 14.751C15.2491 14.5928 15.4637 14.5039 15.6875 14.5039Z" fill="black"/>
</svg>
