<svg width="34" height="34" viewBox="0 0 34 34" fill="none" xmlns="http://www.w3.org/2000/svg">
<path fill-rule="evenodd" clip-rule="evenodd" d="M16.9994 32.9064C24.9861 32.9064 31.4606 26.4319 31.4606 18.4452C31.4606 10.4584 24.9861 3.98389 16.9994 3.98389C9.01262 3.98389 2.53809 10.4584 2.53809 18.4452C2.53809 21.0388 3.22086 23.4729 4.41648 25.5776L2.53809 32.9064L10.094 31.1544C12.1459 32.2716 14.4985 32.9064 16.9994 32.9064ZM16.9994 30.6816C23.7574 30.6816 29.2358 25.2032 29.2358 18.4452C29.2358 11.6872 23.7574 6.2087 16.9994 6.2087C10.2413 6.2087 4.7629 11.6872 4.7629 18.4452C4.7629 21.0545 5.5796 23.473 6.97133 25.4591L5.8753 29.5692L10.0579 28.5236C12.0302 29.8846 14.4217 30.6816 16.9994 30.6816Z" fill="#BFC8D0"/>
<path d="M29.3953 17.4125C29.3953 24.2582 23.8457 29.8078 16.9999 29.8078C14.3888 29.8078 11.9662 29.0005 9.96824 27.6218L5.73134 28.681L6.84161 24.5175C5.43181 22.5056 4.60449 20.0557 4.60449 17.4125C4.60449 10.5667 10.1541 5.01709 16.9999 5.01709C23.8457 5.01709 29.3953 10.5667 29.3953 17.4125Z" fill="url(#paint0_linear_57_696)"/>
<path fill-rule="evenodd" clip-rule="evenodd" d="M16.9994 31.8737C24.9861 31.8737 31.4606 25.3992 31.4606 17.4124C31.4606 9.42571 24.9861 2.95117 16.9994 2.95117C9.01262 2.95117 2.53809 9.42571 2.53809 17.4124C2.53809 20.0061 3.22086 22.4402 4.41648 24.5449L2.53809 31.8737L10.094 30.1216C12.1459 31.2389 14.4985 31.8737 16.9994 31.8737ZM16.9994 29.6489C23.7574 29.6489 29.2358 24.1705 29.2358 17.4124C29.2358 10.6544 23.7574 5.17598 16.9994 5.17598C10.2413 5.17598 4.7629 10.6544 4.7629 17.4124C4.7629 20.0217 5.5796 22.4403 6.97133 24.4264L5.8753 28.5365L10.0579 27.4909C12.0302 28.8519 14.4217 29.6489 16.9994 29.6489Z" fill="white"/>
<path d="M13.3843 10.6982C13.0404 10.0076 12.513 10.0688 11.9801 10.0688C11.0278 10.0688 9.54297 11.2094 9.54297 13.3323C9.54297 15.0721 10.3096 16.9766 12.893 19.8256C15.3861 22.5751 18.662 23.9974 21.3815 23.9489C24.1011 23.9005 24.6606 21.5603 24.6606 20.7699C24.6606 20.4196 24.4432 20.2448 24.2935 20.1974C23.3667 19.7526 21.6575 18.9239 21.2686 18.7682C20.8796 18.6125 20.6766 18.8231 20.5503 18.9376C20.1976 19.2737 19.4985 20.2643 19.2592 20.487C19.0198 20.7098 18.6629 20.5971 18.5144 20.5129C17.9679 20.2936 16.4861 19.6345 15.305 18.4895C13.8442 17.0735 13.7585 16.5863 13.4833 16.1526C13.2631 15.8057 13.4247 15.5928 13.5053 15.4998C13.82 15.1367 14.2546 14.576 14.4495 14.2974C14.6444 14.0188 14.4897 13.5958 14.3968 13.3323C13.9976 12.1992 13.6593 11.2507 13.3843 10.6982Z" fill="white"/>
<defs>
<linearGradient id="paint0_linear_57_696" x1="27.8458" y1="8.11593" x2="4.60449" y2="29.8078" gradientUnits="userSpaceOnUse">
<stop stop-color="#5BD066"/>
<stop offset="1" stop-color="#27B43E"/>
</linearGradient>
</defs>
</svg>
